<svg width="114" height="60" viewBox="0 0 114 60" fill="none" xmlns="http://www.w3.org/2000/svg">
<path d="M7.10407 8.79063C5.85865 10.3918 4.6237 11.999 3.25957 13.7574C0.944203 12.2805 0.170435 10.5024 0.76027 9.239C2.09805 6.41427 3.41384 3.50678 5.67379 1.28454C8.16546 -1.16984 11.51 -0.0252213 15.2066 4.06325C18.5198 7.72794 21.7088 11.4144 24.9116 15.101C25.9111 16.2464 27.2411 17.5204 25.7278 18.3284C22.4428 17.008 20.9939 14.4897 18.857 12.4618C16.6499 10.3623 14.649 8.17151 11.8244 5.25603C11.9403 6.98913 11.893 7.98958 12.0888 9.0525C13.9846 19.2332 19.4481 29.5195 30.0947 39.9174C34.995 44.7008 40.5652 48.9523 47.1275 52.235C56.8297 57.0891 63.6315 57.6604 68.6922 53.7539C70.8087 52.1185 72.082 49.8405 73.7741 47.8042C71.6977 46.3485 70.2997 45.3857 68.9118 44.4053C62.1643 39.6064 59.6114 34.7457 59.882 29.95C59.9918 28.0436 60.7312 26.3761 63.8671 26.7462C66.8541 27.1082 69.4545 28.9132 71.6373 31.0065C74.936 34.1646 76.5687 37.404 77.5222 40.5629C78.148 42.6215 78.3852 44.6037 78.8295 46.7833C81.5066 48.6248 84.287 49.0544 86.9623 49.618C93.791 51.0612 99.0565 50.2083 103.676 48.492C106.858 47.308 109.913 46.0044 113.2 44.6865C114.039 47.3666 113.585 48.0078 105.622 50.6819C102.122 51.8612 98.0986 52.7618 93.6489 52.661C89.0471 52.5579 83.6464 51.0826 77.5325 50.0209C76.8717 51.1654 76.0804 53.0677 74.7969 54.6624C69.0377 61.8094 57.6959 61.342 43.4426 53.5411C34.0682 48.4091 26.7057 42.0405 20.635 34.8607C14.3494 27.4244 10.4557 20.0999 8.82275 12.9206C8.54111 11.668 8.25947 10.4154 7.97783 9.16274C7.68882 9.03481 7.39645 8.91272 7.10407 8.79063ZM73.4834 44.1016C74.0608 38.3152 70.7302 32.7952 65.1304 30.2629C62.6632 34.5845 66.0364 40.1758 73.4834 44.1016Z" fill="white" fill-opacity="0.6"/>
</svg>
